<?xml version="1.0" standalone="no"?>
 <!DOCTYPE svg PUBLIC "-//W3C//DTD SVG 1.1//EN" 
 "http://www.w3.org/Graphics/SVG/1.1/DTD/svg11.dtd"> 
<svg xmlns="http://www.w3.org/2000/svg" version="1.1" 
    width="29.7002cm" height="21.0007cm" viewBox="0 0 116930 82680 ">
<title>SVG Picture created as 7SegV10-F.Mask.svg date 2015/11/01 17:31:25 </title>
  <desc>Picture generated by PCBNEW </desc>
<g style="fill:#000000; fill-opacity:1;stroke:#000000; stroke-opacity:1;
stroke-linecap:round; stroke-linejoin:round; "
 transform="translate(0 0) scale(1 1)">
</g>
<g style="fill:#000000; fill-opacity:0.0; 
stroke:#000000; stroke-width:-0.000393701; stroke-opacity:1; 
stroke-linecap:round; stroke-linejoin:round;">
</g>
<g style="fill:#000000; fill-opacity:0.0; 
stroke:#000000; stroke-width:39.3701; stroke-opacity:1; 
stroke-linecap:round; stroke-linejoin:round;">
</g>
<g style="fill:#000000; fill-opacity:0.0; 
stroke:#000000; stroke-width:59.0551; stroke-opacity:1; 
stroke-linecap:round; stroke-linejoin:round;">
<rect x="69685.9" y="65357.2" width="42519.7" height="12598.4" rx="0" />
</g>
<g style="fill:#000000; fill-opacity:0.0; 
stroke:#000000; stroke-width:39.3701; stroke-opacity:1; 
stroke-linecap:round; stroke-linejoin:round;">
</g>
<g style="fill:#000000; fill-opacity:0.0; 
stroke:#000000; stroke-width:59.0551; stroke-opacity:1; 
stroke-linecap:round; stroke-linejoin:round;">
<rect x="3937.01" y="3937.01" width="109056" height="74806" rx="0" />
</g>
<g style="fill:#000000; fill-opacity:0.0; 
stroke:#000000; stroke-width:39.3701; stroke-opacity:1; 
stroke-linecap:round; stroke-linejoin:round;">
</g>
<g style="fill:#000000; fill-opacity:0.0; 
stroke:#000000; stroke-width:59.0551; stroke-opacity:1; 
stroke-linecap:round; stroke-linejoin:round;">
<rect x="4724.41" y="4724.41" width="107481" height="73231.2" rx="0" />
</g>
<g style="fill:#000000; fill-opacity:0.0; 
stroke:#000000; stroke-width:39.3701; stroke-opacity:1; 
stroke-linecap:round; stroke-linejoin:round;">
</g>
<g style="fill:#000000; fill-opacity:0.0; 
stroke:#000000; stroke-width:59.0551; stroke-opacity:1; 
stroke-linecap:round; stroke-linejoin:round;">
<path d="M23622 4724
L23622 3937
" />
</g>
<g style="fill:#000000; fill-opacity:0.0; 
stroke:#000000; stroke-width:39.3701; stroke-opacity:1; 
stroke-linecap:round; stroke-linejoin:round;">
</g>
<g style="fill:#000000; fill-opacity:0.0; 
stroke:#000000; stroke-width:59.0551; stroke-opacity:1; 
stroke-linecap:round; stroke-linejoin:round;">
<path d="M43307 4724
L43307 3937
" />
</g>
<g style="fill:#000000; fill-opacity:0.0; 
stroke:#000000; stroke-width:39.3701; stroke-opacity:1; 
stroke-linecap:round; stroke-linejoin:round;">
</g>
<g style="fill:#000000; fill-opacity:0.0; 
stroke:#000000; stroke-width:59.0551; stroke-opacity:1; 
stroke-linecap:round; stroke-linejoin:round;">
<path d="M62992 4724
L62992 3937
" />
</g>
<g style="fill:#000000; fill-opacity:0.0; 
stroke:#000000; stroke-width:39.3701; stroke-opacity:1; 
stroke-linecap:round; stroke-linejoin:round;">
</g>
<g style="fill:#000000; fill-opacity:0.0; 
stroke:#000000; stroke-width:59.0551; stroke-opacity:1; 
stroke-linecap:round; stroke-linejoin:round;">
<path d="M82677 4724
L82677 3937
" />
</g>
<g style="fill:#000000; fill-opacity:0.0; 
stroke:#000000; stroke-width:39.3701; stroke-opacity:1; 
stroke-linecap:round; stroke-linejoin:round;">
</g>
<g style="fill:#000000; fill-opacity:0.0; 
stroke:#000000; stroke-width:59.0551; stroke-opacity:1; 
stroke-linecap:round; stroke-linejoin:round;">
<path d="M102362 4724
L102362 3937
" />
</g>
<g style="fill:#000000; fill-opacity:0.0; 
stroke:#000000; stroke-width:39.3701; stroke-opacity:1; 
stroke-linecap:round; stroke-linejoin:round;">
</g>
<g style="fill:#000000; fill-opacity:0.0; 
stroke:#000000; stroke-width:59.0551; stroke-opacity:1; 
stroke-linecap:round; stroke-linejoin:round;">
<path d="M14169 4562
L13877 4562
" />
<path d="M14023 4562
L14023 4050
L13974 4123
L13925 4172
L13877 4196
" />
</g>
<g style="fill:#000000; fill-opacity:0.0; 
stroke:#000000; stroke-width:39.3701; stroke-opacity:1; 
stroke-linecap:round; stroke-linejoin:round;">
</g>
<g style="fill:#000000; fill-opacity:0.0; 
stroke:#000000; stroke-width:59.0551; stroke-opacity:1; 
stroke-linecap:round; stroke-linejoin:round;">
<path d="M33562 4099
L33586 4074
L33635 4050
L33757 4050
L33805 4074
L33830 4099
L33854 4147
L33854 4196
L33830 4269
L33537 4562
L33854 4562
" />
</g>
<g style="fill:#000000; fill-opacity:0.0; 
stroke:#000000; stroke-width:39.3701; stroke-opacity:1; 
stroke-linecap:round; stroke-linejoin:round;">
</g>
<g style="fill:#000000; fill-opacity:0.0; 
stroke:#000000; stroke-width:59.0551; stroke-opacity:1; 
stroke-linecap:round; stroke-linejoin:round;">
<path d="M53222 4050
L53539 4050
L53368 4245
L53442 4245
L53490 4269
L53515 4294
L53539 4342
L53539 4464
L53515 4513
L53490 4537
L53442 4562
L53295 4562
L53247 4537
L53222 4513
" />
</g>
<g style="fill:#000000; fill-opacity:0.0; 
stroke:#000000; stroke-width:39.3701; stroke-opacity:1; 
stroke-linecap:round; stroke-linejoin:round;">
</g>
<g style="fill:#000000; fill-opacity:0.0; 
stroke:#000000; stroke-width:59.0551; stroke-opacity:1; 
stroke-linecap:round; stroke-linejoin:round;">
<path d="M73175 4221
L73175 4562
" />
<path d="M73053 4026
L72932 4391
L73248 4391
" />
</g>
<g style="fill:#000000; fill-opacity:0.0; 
stroke:#000000; stroke-width:39.3701; stroke-opacity:1; 
stroke-linecap:round; stroke-linejoin:round;">
</g>
<g style="fill:#000000; fill-opacity:0.0; 
stroke:#000000; stroke-width:59.0551; stroke-opacity:1; 
stroke-linecap:round; stroke-linejoin:round;">
<path d="M92885 4050
L92641 4050
L92617 4294
L92641 4269
L92690 4245
L92812 4245
L92860 4269
L92885 4294
L92909 4342
L92909 4464
L92885 4513
L92860 4537
L92812 4562
L92690 4562
L92641 4537
L92617 4513
" />
</g>
<g style="fill:#000000; fill-opacity:0.0; 
stroke:#000000; stroke-width:39.3701; stroke-opacity:1; 
stroke-linecap:round; stroke-linejoin:round;">
</g>
<g style="fill:#000000; fill-opacity:0.0; 
stroke:#000000; stroke-width:59.0551; stroke-opacity:1; 
stroke-linecap:round; stroke-linejoin:round;">
<path d="M112545 4050
L112448 4050
L112399 4074
L112375 4099
L112326 4172
L112302 4269
L112302 4464
L112326 4513
L112350 4537
L112399 4562
L112497 4562
L112545 4537
L112570 4513
L112594 4464
L112594 4342
L112570 4294
L112545 4269
L112497 4245
L112399 4245
L112350 4269
L112326 4294
L112302 4342
" />
</g>
<g style="fill:#000000; fill-opacity:0.0; 
stroke:#000000; stroke-width:39.3701; stroke-opacity:1; 
stroke-linecap:round; stroke-linejoin:round;">
</g>
<g style="fill:#000000; fill-opacity:0.0; 
stroke:#000000; stroke-width:59.0551; stroke-opacity:1; 
stroke-linecap:round; stroke-linejoin:round;">
<path d="M23622 77955
L23622 78742
" />
</g>
<g style="fill:#000000; fill-opacity:0.0; 
stroke:#000000; stroke-width:39.3701; stroke-opacity:1; 
stroke-linecap:round; stroke-linejoin:round;">
</g>
<g style="fill:#000000; fill-opacity:0.0; 
stroke:#000000; stroke-width:59.0551; stroke-opacity:1; 
stroke-linecap:round; stroke-linejoin:round;">
<path d="M43307 77955
L43307 78742
" />
</g>
<g style="fill:#000000; fill-opacity:0.0; 
stroke:#000000; stroke-width:39.3701; stroke-opacity:1; 
stroke-linecap:round; stroke-linejoin:round;">
</g>
<g style="fill:#000000; fill-opacity:0.0; 
stroke:#000000; stroke-width:59.0551; stroke-opacity:1; 
stroke-linecap:round; stroke-linejoin:round;">
<path d="M62992 77955
L62992 78742
" />
</g>
<g style="fill:#000000; fill-opacity:0.0; 
stroke:#000000; stroke-width:39.3701; stroke-opacity:1; 
stroke-linecap:round; stroke-linejoin:round;">
</g>
<g style="fill:#000000; fill-opacity:0.0; 
stroke:#000000; stroke-width:59.0551; stroke-opacity:1; 
stroke-linecap:round; stroke-linejoin:round;">
<path d="M82677 77955
L82677 78742
" />
</g>
<g style="fill:#000000; fill-opacity:0.0; 
stroke:#000000; stroke-width:39.3701; stroke-opacity:1; 
stroke-linecap:round; stroke-linejoin:round;">
</g>
<g style="fill:#000000; fill-opacity:0.0; 
stroke:#000000; stroke-width:59.0551; stroke-opacity:1; 
stroke-linecap:round; stroke-linejoin:round;">
<path d="M102362 77955
L102362 78742
" />
</g>
<g style="fill:#000000; fill-opacity:0.0; 
stroke:#000000; stroke-width:39.3701; stroke-opacity:1; 
stroke-linecap:round; stroke-linejoin:round;">
</g>
<g style="fill:#000000; fill-opacity:0.0; 
stroke:#000000; stroke-width:59.0551; stroke-opacity:1; 
stroke-linecap:round; stroke-linejoin:round;">
<path d="M14169 78580
L13877 78580
" />
<path d="M14023 78580
L14023 78069
L13974 78142
L13925 78190
L13877 78215
" />
</g>
<g style="fill:#000000; fill-opacity:0.0; 
stroke:#000000; stroke-width:39.3701; stroke-opacity:1; 
stroke-linecap:round; stroke-linejoin:round;">
</g>
<g style="fill:#000000; fill-opacity:0.0; 
stroke:#000000; stroke-width:59.0551; stroke-opacity:1; 
stroke-linecap:round; stroke-linejoin:round;">
<path d="M33562 78117
L33586 78093
L33635 78069
L33757 78069
L33805 78093
L33830 78117
L33854 78166
L33854 78215
L33830 78288
L33537 78580
L33854 78580
" />
</g>
<g style="fill:#000000; fill-opacity:0.0; 
stroke:#000000; stroke-width:39.3701; stroke-opacity:1; 
stroke-linecap:round; stroke-linejoin:round;">
</g>
<g style="fill:#000000; fill-opacity:0.0; 
stroke:#000000; stroke-width:59.0551; stroke-opacity:1; 
stroke-linecap:round; stroke-linejoin:round;">
<path d="M53222 78069
L53539 78069
L53368 78263
L53442 78263
L53490 78288
L53515 78312
L53539 78361
L53539 78483
L53515 78532
L53490 78556
L53442 78580
L53295 78580
L53247 78556
L53222 78532
" />
</g>
<g style="fill:#000000; fill-opacity:0.0; 
stroke:#000000; stroke-width:39.3701; stroke-opacity:1; 
stroke-linecap:round; stroke-linejoin:round;">
</g>
<g style="fill:#000000; fill-opacity:0.0; 
stroke:#000000; stroke-width:59.0551; stroke-opacity:1; 
stroke-linecap:round; stroke-linejoin:round;">
<path d="M73175 78239
L73175 78580
" />
<path d="M73053 78044
L72932 78410
L73248 78410
" />
</g>
<g style="fill:#000000; fill-opacity:0.0; 
stroke:#000000; stroke-width:39.3701; stroke-opacity:1; 
stroke-linecap:round; stroke-linejoin:round;">
</g>
<g style="fill:#000000; fill-opacity:0.0; 
stroke:#000000; stroke-width:59.0551; stroke-opacity:1; 
stroke-linecap:round; stroke-linejoin:round;">
<path d="M92885 78069
L92641 78069
L92617 78312
L92641 78288
L92690 78263
L92812 78263
L92860 78288
L92885 78312
L92909 78361
L92909 78483
L92885 78532
L92860 78556
L92812 78580
L92690 78580
L92641 78556
L92617 78532
" />
</g>
<g style="fill:#000000; fill-opacity:0.0; 
stroke:#000000; stroke-width:39.3701; stroke-opacity:1; 
stroke-linecap:round; stroke-linejoin:round;">
</g>
<g style="fill:#000000; fill-opacity:0.0; 
stroke:#000000; stroke-width:59.0551; stroke-opacity:1; 
stroke-linecap:round; stroke-linejoin:round;">
<path d="M112545 78069
L112448 78069
L112399 78093
L112375 78117
L112326 78190
L112302 78288
L112302 78483
L112326 78532
L112350 78556
L112399 78580
L112497 78580
L112545 78556
L112570 78532
L112594 78483
L112594 78361
L112570 78312
L112545 78288
L112497 78263
L112399 78263
L112350 78288
L112326 78312
L112302 78361
" />
</g>
<g style="fill:#000000; fill-opacity:0.0; 
stroke:#000000; stroke-width:39.3701; stroke-opacity:1; 
stroke-linecap:round; stroke-linejoin:round;">
</g>
<g style="fill:#000000; fill-opacity:0.0; 
stroke:#000000; stroke-width:59.0551; stroke-opacity:1; 
stroke-linecap:round; stroke-linejoin:round;">
<path d="M3937 23622
L4724 23622
" />
</g>
<g style="fill:#000000; fill-opacity:0.0; 
stroke:#000000; stroke-width:39.3701; stroke-opacity:1; 
stroke-linecap:round; stroke-linejoin:round;">
</g>
<g style="fill:#000000; fill-opacity:0.0; 
stroke:#000000; stroke-width:59.0551; stroke-opacity:1; 
stroke-linecap:round; stroke-linejoin:round;">
<path d="M3937 43307
L4724 43307
" />
</g>
<g style="fill:#000000; fill-opacity:0.0; 
stroke:#000000; stroke-width:39.3701; stroke-opacity:1; 
stroke-linecap:round; stroke-linejoin:round;">
</g>
<g style="fill:#000000; fill-opacity:0.0; 
stroke:#000000; stroke-width:59.0551; stroke-opacity:1; 
stroke-linecap:round; stroke-linejoin:round;">
<path d="M3937 62992
L4724 62992
" />
</g>
<g style="fill:#000000; fill-opacity:0.0; 
stroke:#000000; stroke-width:39.3701; stroke-opacity:1; 
stroke-linecap:round; stroke-linejoin:round;">
</g>
<g style="fill:#000000; fill-opacity:0.0; 
stroke:#000000; stroke-width:59.0551; stroke-opacity:1; 
stroke-linecap:round; stroke-linejoin:round;">
<path d="M4208 13864
L4452 13864
" />
<path d="M4160 14011
L4330 13499
L4501 14011
" />
</g>
<g style="fill:#000000; fill-opacity:0.0; 
stroke:#000000; stroke-width:39.3701; stroke-opacity:1; 
stroke-linecap:round; stroke-linejoin:round;">
</g>
<g style="fill:#000000; fill-opacity:0.0; 
stroke:#000000; stroke-width:59.0551; stroke-opacity:1; 
stroke-linecap:round; stroke-linejoin:round;">
<path d="M4367 33428
L4440 33452
L4464 33476
L4489 33525
L4489 33598
L4464 33647
L4440 33671
L4391 33696
L4196 33696
L4196 33184
L4367 33184
L4416 33208
L4440 33233
L4464 33281
L4464 33330
L4440 33379
L4416 33403
L4367 33428
L4196 33428
" />
</g>
<g style="fill:#000000; fill-opacity:0.0; 
stroke:#000000; stroke-width:39.3701; stroke-opacity:1; 
stroke-linecap:round; stroke-linejoin:round;">
</g>
<g style="fill:#000000; fill-opacity:0.0; 
stroke:#000000; stroke-width:59.0551; stroke-opacity:1; 
stroke-linecap:round; stroke-linejoin:round;">
<path d="M4489 53332
L4464 53356
L4391 53381
L4342 53381
L4269 53356
L4221 53308
L4196 53259
L4172 53161
L4172 53088
L4196 52991
L4221 52942
L4269 52893
L4342 52869
L4391 52869
L4464 52893
L4489 52918
" />
</g>
<g style="fill:#000000; fill-opacity:0.0; 
stroke:#000000; stroke-width:39.3701; stroke-opacity:1; 
stroke-linecap:round; stroke-linejoin:round;">
</g>
<g style="fill:#000000; fill-opacity:0.0; 
stroke:#000000; stroke-width:59.0551; stroke-opacity:1; 
stroke-linecap:round; stroke-linejoin:round;">
<path d="M4196 73066
L4196 72554
L4318 72554
L4391 72578
L4440 72627
L4464 72676
L4489 72773
L4489 72846
L4464 72944
L4440 72993
L4391 73041
L4318 73066
L4196 73066
" />
</g>
<g style="fill:#000000; fill-opacity:0.0; 
stroke:#000000; stroke-width:39.3701; stroke-opacity:1; 
stroke-linecap:round; stroke-linejoin:round;">
</g>
<g style="fill:#000000; fill-opacity:0.0; 
stroke:#000000; stroke-width:59.0551; stroke-opacity:1; 
stroke-linecap:round; stroke-linejoin:round;">
<path d="M112992 23622
L112205 23622
" />
</g>
<g style="fill:#000000; fill-opacity:0.0; 
stroke:#000000; stroke-width:39.3701; stroke-opacity:1; 
stroke-linecap:round; stroke-linejoin:round;">
</g>
<g style="fill:#000000; fill-opacity:0.0; 
stroke:#000000; stroke-width:59.0551; stroke-opacity:1; 
stroke-linecap:round; stroke-linejoin:round;">
<path d="M112992 43307
L112205 43307
" />
</g>
<g style="fill:#000000; fill-opacity:0.0; 
stroke:#000000; stroke-width:39.3701; stroke-opacity:1; 
stroke-linecap:round; stroke-linejoin:round;">
</g>
<g style="fill:#000000; fill-opacity:0.0; 
stroke:#000000; stroke-width:59.0551; stroke-opacity:1; 
stroke-linecap:round; stroke-linejoin:round;">
<path d="M112992 62992
L112205 62992
" />
</g>
<g style="fill:#000000; fill-opacity:0.0; 
stroke:#000000; stroke-width:39.3701; stroke-opacity:1; 
stroke-linecap:round; stroke-linejoin:round;">
</g>
<g style="fill:#000000; fill-opacity:0.0; 
stroke:#000000; stroke-width:59.0551; stroke-opacity:1; 
stroke-linecap:round; stroke-linejoin:round;">
<path d="M112477 13864
L112721 13864
" />
<path d="M112428 14011
L112599 13499
L112769 14011
" />
</g>
<g style="fill:#000000; fill-opacity:0.0; 
stroke:#000000; stroke-width:39.3701; stroke-opacity:1; 
stroke-linecap:round; stroke-linejoin:round;">
</g>
<g style="fill:#000000; fill-opacity:0.0; 
stroke:#000000; stroke-width:59.0551; stroke-opacity:1; 
stroke-linecap:round; stroke-linejoin:round;">
<path d="M112635 33428
L112708 33452
L112733 33476
L112757 33525
L112757 33598
L112733 33647
L112708 33671
L112660 33696
L112465 33696
L112465 33184
L112635 33184
L112684 33208
L112708 33233
L112733 33281
L112733 33330
L112708 33379
L112684 33403
L112635 33428
L112465 33428
" />
</g>
<g style="fill:#000000; fill-opacity:0.0; 
stroke:#000000; stroke-width:39.3701; stroke-opacity:1; 
stroke-linecap:round; stroke-linejoin:round;">
</g>
<g style="fill:#000000; fill-opacity:0.0; 
stroke:#000000; stroke-width:59.0551; stroke-opacity:1; 
stroke-linecap:round; stroke-linejoin:round;">
<path d="M112757 53332
L112733 53356
L112660 53381
L112611 53381
L112538 53356
L112489 53308
L112465 53259
L112440 53161
L112440 53088
L112465 52991
L112489 52942
L112538 52893
L112611 52869
L112660 52869
L112733 52893
L112757 52918
" />
</g>
<g style="fill:#000000; fill-opacity:0.0; 
stroke:#000000; stroke-width:39.3701; stroke-opacity:1; 
stroke-linecap:round; stroke-linejoin:round;">
</g>
<g style="fill:#000000; fill-opacity:0.0; 
stroke:#000000; stroke-width:59.0551; stroke-opacity:1; 
stroke-linecap:round; stroke-linejoin:round;">
<path d="M112465 73066
L112465 72554
L112587 72554
L112660 72578
L112708 72627
L112733 72676
L112757 72773
L112757 72846
L112733 72944
L112708 72993
L112660 73041
L112587 73066
L112465 73066
" />
</g>
<g style="fill:#000000; fill-opacity:0.0; 
stroke:#000000; stroke-width:39.3701; stroke-opacity:1; 
stroke-linecap:round; stroke-linejoin:round;">
</g>
<g style="fill:#000000; fill-opacity:0.0; 
stroke:#000000; stroke-width:59.0551; stroke-opacity:1; 
stroke-linecap:round; stroke-linejoin:round;">
<path d="M78881 76293
L78881 75703
L79022 75703
L79106 75731
L79162 75787
L79190 75843
L79219 75956
L79219 76040
L79190 76153
L79162 76209
L79106 76265
L79022 76293
L78881 76293
" />
<path d="M79725 76293
L79725 75984
L79697 75928
L79640 75899
L79528 75899
L79472 75928
" />
<path d="M79725 76265
L79669 76293
L79528 76293
L79472 76265
L79444 76209
L79444 76153
L79472 76096
L79528 76068
L79669 76068
L79725 76040
" />
<path d="M79922 75899
L80147 75899
" />
<path d="M80006 75703
L80006 76209
L80034 76265
L80090 76293
L80147 76293
" />
<path d="M80568 76265
L80512 76293
L80400 76293
L80343 76265
L80315 76209
L80315 75984
L80343 75928
L80400 75899
L80512 75899
L80568 75928
L80597 75984
L80597 76040
L80315 76096
" />
<path d="M80850 76237
L80878 76265
L80850 76293
L80822 76265
L80850 76237
L80850 76293
" />
<path d="M80850 75928
L80878 75956
L80850 75984
L80822 75956
L80850 75928
L80850 75984
" />
</g>
<g style="fill:#000000; fill-opacity:0.0; 
stroke:#000000; stroke-width:39.3701; stroke-opacity:1; 
stroke-linecap:round; stroke-linejoin:round;">
</g>
<g style="fill:#000000; fill-opacity:0.0; 
stroke:#000000; stroke-width:59.0551; stroke-opacity:1; 
stroke-linecap:round; stroke-linejoin:round;">
<path d="M69685 76577
L112205 76577
" />
</g>
<g style="fill:#000000; fill-opacity:0.0; 
stroke:#000000; stroke-width:39.3701; stroke-opacity:1; 
stroke-linecap:round; stroke-linejoin:round;">
</g>
<g style="fill:#000000; fill-opacity:0.0; 
stroke:#000000; stroke-width:59.0551; stroke-opacity:1; 
stroke-linecap:round; stroke-linejoin:round;">
<path d="M70220 77395
L70220 76805
" />
<path d="M70557 77395
L70304 77058
" />
<path d="M70557 76805
L70220 77142
" />
<path d="M70810 77395
L70810 77002
" />
<path d="M70810 76805
L70782 76833
L70810 76861
L70838 76833
L70810 76805
L70810 76861
" />
<path d="M71429 77339
L71401 77367
L71316 77395
L71260 77395
L71176 77367
L71120 77311
L71091 77255
L71063 77142
L71063 77058
L71091 76946
L71120 76889
L71176 76833
L71260 76805
L71316 76805
L71401 76833
L71429 76861
" />
<path d="M71935 77395
L71935 77086
L71907 77030
L71851 77002
L71738 77002
L71682 77030
" />
<path d="M71935 77367
L71879 77395
L71738 77395
L71682 77367
L71654 77311
L71654 77255
L71682 77199
L71738 77171
L71879 77171
L71935 77142
" />
<path d="M72469 77395
L72469 76805
" />
<path d="M72469 77367
L72413 77395
L72301 77395
L72244 77367
L72216 77339
L72188 77283
L72188 77114
L72216 77058
L72244 77030
L72301 77002
L72413 77002
L72469 77030
" />
<path d="M73201 77086
L73397 77086
" />
<path d="M73482 77395
L73201 77395
L73201 76805
L73482 76805
" />
<path d="M73735 77339
L73763 77367
L73735 77395
L73707 77367
L73735 77339
L73735 77395
" />
<path d="M74016 77395
L74016 76805
L74157 76805
L74241 76833
L74297 76889
L74325 76946
L74354 77058
L74354 77142
L74325 77255
L74297 77311
L74241 77367
L74157 77395
L74016 77395
" />
<path d="M74607 77339
L74635 77367
L74607 77395
L74579 77367
L74607 77339
L74607 77395
" />
<path d="M74860 77227
L75141 77227
" />
<path d="M74804 77395
L75000 76805
L75197 77395
" />
<path d="M75394 77339
L75422 77367
L75394 77395
L75366 77367
L75394 77339
L75394 77395
" />
<path d="M76575 77395
L76575 76805
" />
<path d="M76631 77171
L76800 77395
" />
<path d="M76800 77002
L76575 77227
" />
<path d="M77053 77395
L77053 77002
" />
<path d="M77053 76805
L77025 76833
L77053 76861
L77081 76833
L77053 76805
L77053 76861
" />
<path d="M77588 77367
L77531 77395
L77419 77395
L77363 77367
L77334 77339
L77306 77283
L77306 77114
L77334 77058
L77363 77030
L77419 77002
L77531 77002
L77588 77030
" />
<path d="M78094 77395
L78094 77086
L78066 77030
L78009 77002
L77897 77002
L77841 77030
" />
<path d="M78094 77367
L78037 77395
L77897 77395
L77841 77367
L77813 77311
L77813 77255
L77841 77199
L77897 77171
L78037 77171
L78094 77142
" />
<path d="M78628 77395
L78628 76805
" />
<path d="M78628 77367
L78572 77395
L78459 77395
L78403 77367
L78375 77339
L78347 77283
L78347 77114
L78375 77058
L78403 77030
L78459 77002
L78572 77002
L78628 77030
" />
<path d="M79472 76805
L79528 76805
L79584 76833
L79612 76861
L79640 76917
L79669 77030
L79669 77171
L79640 77283
L79612 77339
L79584 77367
L79528 77395
L79472 77395
L79415 77367
L79387 77339
L79359 77283
L79331 77171
L79331 77030
L79359 76917
L79387 76861
L79415 76833
L79472 76805
" />
<path d="M79922 77339
L79950 77367
L79922 77395
L79894 77367
L79922 77339
L79922 77395
" />
<path d="M80175 76861
L80203 76833
L80259 76805
L80400 76805
L80456 76833
L80484 76861
L80512 76917
L80512 76974
L80484 77058
L80147 77395
L80512 77395
" />
<path d="M80878 76805
L80934 76805
L80990 76833
L81018 76861
L81046 76917
L81075 77030
L81075 77171
L81046 77283
L81018 77339
L80990 77367
L80934 77395
L80878 77395
L80822 77367
L80793 77339
L80765 77283
L80737 77171
L80737 77030
L80765 76917
L80793 76861
L80822 76833
L80878 76805
" />
<path d="M81637 77395
L81300 77395
" />
<path d="M81468 77395
L81468 76805
L81412 76889
L81356 76946
L81300 76974
" />
<path d="M82171 76805
L81890 76805
L81862 77086
L81890 77058
L81946 77030
L82087 77030
L82143 77058
L82171 77086
L82199 77142
L82199 77283
L82171 77339
L82143 77367
L82087 77395
L81946 77395
L81890 77367
L81862 77339
" />
<path d="M82762 77395
L82424 77395
" />
<path d="M82593 77395
L82593 76805
L82537 76889
L82481 76946
L82424 76974
" />
<path d="M83127 76805
L83184 76805
L83240 76833
L83268 76861
L83296 76917
L83324 77030
L83324 77171
L83296 77283
L83268 77339
L83240 77367
L83184 77395
L83127 77395
L83071 77367
L83043 77339
L83015 77283
L82987 77171
L82987 77030
L83015 76917
L83043 76861
L83071 76833
L83127 76805
" />
<path d="M83549 76861
L83577 76833
L83634 76805
L83774 76805
L83831 76833
L83859 76861
L83887 76917
L83887 76974
L83859 77058
L83521 77395
L83887 77395
" />
<path d="M84224 77058
L84168 77030
L84140 77002
L84112 76946
L84112 76917
L84140 76861
L84168 76833
L84224 76805
L84337 76805
L84393 76833
L84421 76861
L84449 76917
L84449 76946
L84421 77002
L84393 77030
L84337 77058
L84224 77058
L84168 77086
L84140 77114
L84112 77171
L84112 77283
L84140 77339
L84168 77367
L84224 77395
L84337 77395
L84393 77367
L84421 77339
L84449 77283
L84449 77171
L84421 77114
L84393 77086
L84337 77058
" />
<path d="M85012 77395
L84674 77395
" />
<path d="M84843 77395
L84843 76805
L84787 76889
L84730 76946
L84674 76974
" />
<path d="M85293 77395
L85405 77395
L85462 77367
L85490 77339
L85546 77255
L85574 77142
L85574 76917
L85546 76861
L85518 76833
L85462 76805
L85349 76805
L85293 76833
L85265 76861
L85237 76917
L85237 77058
L85265 77114
L85293 77142
L85349 77171
L85462 77171
L85518 77142
L85546 77114
L85574 77058
" />
<path d="M85940 76805
L85996 76805
L86052 76833
L86080 76861
L86108 76917
L86136 77030
L86136 77171
L86108 77283
L86080 77339
L86052 77367
L85996 77395
L85940 77395
L85883 77367
L85855 77339
L85827 77283
L85799 77171
L85799 77030
L85827 76917
L85855 76861
L85883 76833
L85940 76805
" />
<path d="M86699 77395
L86361 77395
" />
<path d="M86530 77395
L86530 76805
L86474 76889
L86418 76946
L86361 76974
" />
<path d="M86952 77171
L87402 77171
" />
<path d="M87177 77395
L87177 76946
" />
<path d="M87936 76805
L87824 76805
L87768 76833
L87739 76861
L87683 76946
L87655 77058
L87655 77283
L87683 77339
L87711 77367
L87768 77395
L87880 77395
L87936 77367
L87964 77339
L87992 77283
L87992 77142
L87964 77086
L87936 77058
L87880 77030
L87768 77030
L87711 77058
L87683 77086
L87655 77142
" />
<path d="M88217 76861
L88246 76833
L88302 76805
L88442 76805
L88499 76833
L88527 76861
L88555 76917
L88555 76974
L88527 77058
L88189 77395
L88555 77395
" />
<path d="M88892 77058
L88836 77030
L88808 77002
L88780 76946
L88780 76917
L88808 76861
L88836 76833
L88892 76805
L89005 76805
L89061 76833
L89089 76861
L89117 76917
L89117 76946
L89089 77002
L89061 77030
L89005 77058
L88892 77058
L88836 77086
L88808 77114
L88780 77171
L88780 77283
L88808 77339
L88836 77367
L88892 77395
L89005 77395
L89061 77367
L89089 77339
L89117 77283
L89117 77171
L89089 77114
L89061 77086
L89005 77058
" />
<path d="M89652 76805
L89370 76805
L89342 77086
L89370 77058
L89427 77030
L89567 77030
L89624 77058
L89652 77086
L89680 77142
L89680 77283
L89652 77339
L89624 77367
L89567 77395
L89427 77395
L89370 77367
L89342 77339
" />
<path d="M89877 76805
L90242 76805
L90045 77030
L90130 77030
L90186 77058
L90214 77086
L90242 77142
L90242 77283
L90214 77339
L90186 77367
L90130 77395
L89961 77395
L89905 77367
L89877 77339
" />
<path d="M90608 76805
L90664 76805
L90720 76833
L90748 76861
L90777 76917
L90805 77030
L90805 77171
L90777 77283
L90748 77339
L90720 77367
L90664 77395
L90608 77395
L90552 77367
L90523 77339
L90495 77283
L90467 77171
L90467 77030
L90495 76917
L90523 76861
L90552 76833
L90608 76805
" />
<path d="M89792 76703
L90917 76703
" />
<path d="M91311 77002
L91311 77395
" />
<path d="M91058 77002
L91058 77311
L91086 77367
L91142 77395
L91226 77395
L91283 77367
L91311 77339
" />
<path d="M91592 77395
L91592 76805
" />
<path d="M91592 77030
L91648 77002
L91761 77002
L91817 77030
L91845 77058
L91873 77114
L91873 77283
L91845 77339
L91817 77367
L91761 77395
L91648 77395
L91592 77367
" />
<path d="M92379 77002
L92379 77395
" />
<path d="M92126 77002
L92126 77311
L92154 77367
L92211 77395
L92295 77395
L92351 77367
L92379 77339
" />
<path d="M92661 77002
L92661 77395
" />
<path d="M92661 77058
L92689 77030
L92745 77002
L92829 77002
L92886 77030
L92914 77086
L92914 77395
" />
<path d="M93111 77002
L93336 77002
" />
<path d="M93195 76805
L93195 77311
L93223 77367
L93279 77395
L93336 77395
" />
<path d="M93786 77002
L93786 77395
" />
<path d="M93532 77002
L93532 77311
L93561 77367
L93617 77395
L93701 77395
L93757 77367
L93786 77339
" />
<path d="M94376 77395
L94039 77395
" />
<path d="M94207 77395
L94207 76805
L94151 76889
L94095 76946
L94039 76974
" />
<path d="M94910 76805
L94629 76805
L94601 77086
L94629 77058
L94685 77030
L94826 77030
L94882 77058
L94910 77086
L94938 77142
L94938 77283
L94910 77339
L94882 77367
L94826 77395
L94685 77395
L94629 77367
L94601 77339
" />
<path d="M95192 77339
L95220 77367
L95192 77395
L95163 77367
L95192 77339
L95192 77395
" />
<path d="M95585 76805
L95642 76805
L95698 76833
L95726 76861
L95754 76917
L95782 77030
L95782 77171
L95754 77283
L95726 77339
L95698 77367
L95642 77395
L95585 77395
L95529 77367
L95501 77339
L95473 77283
L95445 77171
L95445 77030
L95473 76917
L95501 76861
L95529 76833
L95585 76805
" />
<path d="M96288 77002
L96288 77395
" />
<path d="M96148 76777
L96007 77199
L96373 77199
" />
<path d="M96598 77339
L96626 77367
L96598 77395
L96570 77367
L96598 77339
L96598 77395
" />
<path d="M97188 77395
L96851 77395
" />
<path d="M97019 77395
L97019 76805
L96963 76889
L96907 76946
L96851 76974
" />
<path d="M97441 77171
L97891 77171
" />
<path d="M98172 77002
L98172 77592
" />
<path d="M98172 77030
L98229 77002
L98341 77002
L98397 77030
L98426 77058
L98454 77114
L98454 77283
L98426 77339
L98397 77367
L98341 77395
L98229 77395
L98172 77367
" />
<path d="M98707 77395
L98707 77002
" />
<path d="M98707 77114
L98735 77058
L98763 77030
L98819 77002
L98876 77002
" />
<path d="M99157 77395
L99100 77367
L99072 77339
L99044 77283
L99044 77114
L99072 77058
L99100 77030
L99157 77002
L99241 77002
L99297 77030
L99325 77058
L99354 77114
L99354 77283
L99325 77339
L99297 77367
L99241 77395
L99157 77395
" />
<path d="M99860 77395
L99860 76805
" />
<path d="M99860 77367
L99804 77395
L99691 77395
L99635 77367
L99607 77339
L99579 77283
L99579 77114
L99607 77058
L99635 77030
L99691 77002
L99804 77002
L99860 77030
" />
<path d="M100394 77002
L100394 77395
" />
<path d="M100141 77002
L100141 77311
L100169 77367
L100225 77395
L100310 77395
L100366 77367
L100394 77339
" />
<path d="M100928 77367
L100872 77395
L100760 77395
L100703 77367
L100675 77339
L100647 77283
L100647 77114
L100675 77058
L100703 77030
L100760 77002
L100872 77002
L100928 77030
" />
<path d="M101097 77002
L101322 77002
" />
<path d="M101181 76805
L101181 77311
L101210 77367
L101266 77395
L101322 77395
" />
</g>
<g style="fill:#000000; fill-opacity:0.0; 
stroke:#000000; stroke-width:39.3701; stroke-opacity:1; 
stroke-linecap:round; stroke-linejoin:round;">
</g>
<g style="fill:#000000; fill-opacity:0.0; 
stroke:#000000; stroke-width:59.0551; stroke-opacity:1; 
stroke-linecap:round; stroke-linejoin:round;">
<path d="M69685 75396
L112205 75396
" />
</g>
<g style="fill:#000000; fill-opacity:0.0; 
stroke:#000000; stroke-width:39.3701; stroke-opacity:1; 
stroke-linecap:round; stroke-linejoin:round;">
</g>
<g style="fill:#000000; fill-opacity:0.0; 
stroke:#000000; stroke-width:118.11; stroke-opacity:1; 
stroke-linecap:round; stroke-linejoin:round;">
<path d="M104022 76293
L103825 76012
" />
<path d="M103684 76293
L103684 75703
L103909 75703
L103965 75731
L103994 75759
L104022 75815
L104022 75899
L103994 75956
L103965 75984
L103909 76012
L103684 76012
" />
<path d="M104500 76265
L104444 76293
L104331 76293
L104275 76265
L104247 76209
L104247 75984
L104275 75928
L104331 75899
L104444 75899
L104500 75928
L104528 75984
L104528 76040
L104247 76096
" />
<path d="M104725 75899
L104865 76293
L105006 75899
" />
<path d="M105231 76237
L105259 76265
L105231 76293
L105203 76265
L105231 76237
L105231 76293
" />
<path d="M105231 75928
L105259 75956
L105231 75984
L105203 75956
L105231 75928
L105231 75984
" />
</g>
<g style="fill:#000000; fill-opacity:0.0; 
stroke:#000000; stroke-width:39.3701; stroke-opacity:1; 
stroke-linecap:round; stroke-linejoin:round;">
</g>
<g style="fill:#000000; fill-opacity:0.0; 
stroke:#000000; stroke-width:59.0551; stroke-opacity:1; 
stroke-linecap:round; stroke-linejoin:round;">
<path d="M70192 76265
L70276 76293
L70417 76293
L70473 76265
L70501 76237
L70529 76181
L70529 76124
L70501 76068
L70473 76040
L70417 76012
L70304 75984
L70248 75956
L70220 75928
L70192 75871
L70192 75815
L70220 75759
L70248 75731
L70304 75703
L70445 75703
L70529 75731
" />
<path d="M70782 76293
L70782 75899
" />
<path d="M70782 75703
L70754 75731
L70782 75759
L70810 75731
L70782 75703
L70782 75759
" />
<path d="M71007 75899
L71316 75899
L71007 76293
L71316 76293
" />
<path d="M71766 76265
L71710 76293
L71598 76293
L71541 76265
L71513 76209
L71513 75984
L71541 75928
L71598 75899
L71710 75899
L71766 75928
L71795 75984
L71795 76040
L71513 76096
" />
<path d="M72048 76237
L72076 76265
L72048 76293
L72019 76265
L72048 76237
L72048 76293
" />
<path d="M72048 75928
L72076 75956
L72048 75984
L72019 75956
L72048 75928
L72048 75984
" />
<path d="M72751 76124
L73032 76124
" />
<path d="M72694 76293
L72891 75703
L73088 76293
" />
<path d="M73538 75899
L73538 76293
" />
<path d="M73397 75674
L73257 76096
L73622 76096
" />
</g>
<g style="fill:#000000; fill-opacity:0.0; 
stroke:#000000; stroke-width:39.3701; stroke-opacity:1; 
stroke-linecap:round; stroke-linejoin:round;">
</g>
<g style="fill:#000000; fill-opacity:0.0; 
stroke:#000000; stroke-width:59.0551; stroke-opacity:1; 
stroke-linecap:round; stroke-linejoin:round;">
<path d="M103684 77395
L103684 76805
" />
<path d="M104219 77395
L104219 76805
" />
<path d="M104219 77367
L104162 77395
L104050 77395
L103994 77367
L103965 77339
L103937 77283
L103937 77114
L103965 77058
L103994 77030
L104050 77002
L104162 77002
L104219 77030
" />
<path d="M104500 77339
L104528 77367
L104500 77395
L104472 77367
L104500 77339
L104500 77395
" />
<path d="M104500 77030
L104528 77058
L104500 77086
L104472 77058
L104500 77030
L104500 77086
" />
<path d="M105540 77395
L105203 77395
" />
<path d="M105372 77395
L105372 76805
L105315 76889
L105259 76946
L105203 76974
" />
<path d="M106215 76777
L105709 77536
" />
<path d="M106721 77395
L106384 77395
" />
<path d="M106553 77395
L106553 76805
L106496 76889
L106440 76946
L106384 76974
" />
</g>
<g style="fill:#000000; fill-opacity:0.0; 
stroke:#000000; stroke-width:39.3701; stroke-opacity:1; 
stroke-linecap:round; stroke-linejoin:round;">
</g>
<g style="fill:#000000; fill-opacity:0.0; 
stroke:#000000; stroke-width:59.0551; stroke-opacity:1; 
stroke-linecap:round; stroke-linejoin:round;">
<path d="M69685 73821
L112205 73821
" />
</g>
<g style="fill:#000000; fill-opacity:0.0; 
stroke:#000000; stroke-width:39.3701; stroke-opacity:1; 
stroke-linecap:round; stroke-linejoin:round;">
</g>
<g style="fill:#000000; fill-opacity:0.0; 
stroke:#000000; stroke-width:157.48; stroke-opacity:1; 
stroke-linecap:round; stroke-linejoin:round;">
<path d="M70257 74099
L70707 74099
" />
<path d="M70384 74886
L70482 74099
" />
<path d="M70871 74886
L70937 74361
" />
<path d="M70970 74099
L70927 74136
L70960 74174
L71002 74136
L70970 74099
L70960 74174
" />
<path d="M71199 74361
L71499 74361
" />
<path d="M71345 74099
L71260 74774
L71288 74849
L71359 74886
L71434 74886
" />
<path d="M71809 74886
L71738 74849
L71710 74774
L71795 74099
" />
<path d="M72413 74849
L72334 74886
L72184 74886
L72113 74849
L72085 74774
L72123 74474
L72169 74399
L72249 74361
L72399 74361
L72469 74399
L72498 74474
L72488 74549
L72104 74624
" />
<path d="M72793 74811
L72826 74849
L72783 74886
L72751 74849
L72793 74811
L72783 74886
" />
<path d="M72844 74399
L72877 74436
L72835 74474
L72802 74436
L72844 74399
L72835 74474
" />
</g>
<g style="fill:#000000; fill-opacity:0.0; 
stroke:#000000; stroke-width:39.3701; stroke-opacity:1; 
stroke-linecap:round; stroke-linejoin:round;">
</g>
<g style="fill:#000000; fill-opacity:0.0; 
stroke:#000000; stroke-width:59.0551; stroke-opacity:1; 
stroke-linecap:round; stroke-linejoin:round;">
<path d="M70417 73070
L70220 73070
" />
<path d="M70220 73380
L70220 72789
L70501 72789
" />
<path d="M70726 73380
L70726 72986
" />
<path d="M70726 72789
L70698 72817
L70726 72845
L70754 72817
L70726 72789
L70726 72845
" />
<path d="M71091 73380
L71035 73352
L71007 73295
L71007 72789
" />
<path d="M71541 73352
L71485 73380
L71373 73380
L71316 73352
L71288 73295
L71288 73070
L71316 73014
L71373 72986
L71485 72986
L71541 73014
L71570 73070
L71570 73127
L71288 73183
" />
<path d="M71823 73323
L71851 73352
L71823 73380
L71795 73352
L71823 73323
L71823 73380
" />
<path d="M71823 73014
L71851 73042
L71823 73070
L71795 73042
L71823 73014
L71823 73070
" />
<path d="M72498 72789
L72891 72789
L72638 73380
" />
<path d="M73088 73352
L73172 73380
L73313 73380
L73369 73352
L73397 73323
L73426 73267
L73426 73211
L73397 73155
L73369 73127
L73313 73099
L73201 73070
L73144 73042
L73116 73014
L73088 72958
L73088 72902
L73116 72845
L73144 72817
L73201 72789
L73341 72789
L73426 72817
" />
<path d="M73904 73352
L73847 73380
L73735 73380
L73679 73352
L73651 73295
L73651 73070
L73679 73014
L73735 72986
L73847 72986
L73904 73014
L73932 73070
L73932 73127
L73651 73183
" />
<path d="M74438 72986
L74438 73464
L74410 73520
L74382 73548
L74325 73577
L74241 73577
L74185 73548
" />
<path d="M74438 73352
L74382 73380
L74269 73380
L74213 73352
L74185 73323
L74157 73267
L74157 73099
L74185 73042
L74213 73014
L74269 72986
L74382 72986
L74438 73014
" />
<path d="M74635 72789
L74832 73380
L75028 72789
" />
<path d="M75535 73380
L75197 73380
" />
<path d="M75366 73380
L75366 72789
L75310 72874
L75253 72930
L75197 72958
" />
<path d="M75900 72789
L75956 72789
L76013 72817
L76041 72845
L76069 72902
L76097 73014
L76097 73155
L76069 73267
L76041 73323
L76013 73352
L75956 73380
L75900 73380
L75844 73352
L75816 73323
L75788 73267
L75760 73155
L75760 73014
L75788 72902
L75816 72845
L75844 72817
L75900 72789
" />
<path d="M76350 73323
L76378 73352
L76350 73380
L76322 73352
L76350 73323
L76350 73380
" />
<path d="M76631 73380
L76631 72789
" />
<path d="M76688 73155
L76856 73380
" />
<path d="M76856 72986
L76631 73211
" />
<path d="M77109 73380
L77109 72986
" />
<path d="M77109 72789
L77081 72817
L77109 72845
L77138 72817
L77109 72789
L77109 72845
" />
<path d="M77644 73352
L77588 73380
L77475 73380
L77419 73352
L77391 73323
L77363 73267
L77363 73099
L77391 73042
L77419 73014
L77475 72986
L77588 72986
L77644 73014
" />
<path d="M78150 73380
L78150 73070
L78122 73014
L78066 72986
L77953 72986
L77897 73014
" />
<path d="M78150 73352
L78094 73380
L77953 73380
L77897 73352
L77869 73295
L77869 73239
L77897 73183
L77953 73155
L78094 73155
L78150 73127
" />
<path d="M78684 73380
L78684 72789
" />
<path d="M78684 73352
L78628 73380
L78516 73380
L78459 73352
L78431 73323
L78403 73267
L78403 73099
L78431 73042
L78459 73014
L78516 72986
L78628 72986
L78684 73014
" />
<path d="M78825 73436
L79275 73436
" />
<path d="M79415 72986
L79415 73577
" />
<path d="M79415 73014
L79472 72986
L79584 72986
L79640 73014
L79669 73042
L79697 73099
L79697 73267
L79669 73323
L79640 73352
L79584 73380
L79472 73380
L79415 73352
" />
<path d="M80203 73352
L80147 73380
L80034 73380
L79978 73352
L79950 73323
L79922 73267
L79922 73099
L79950 73042
L79978 73014
L80034 72986
L80147 72986
L80203 73014
" />
<path d="M80456 73380
L80456 72789
" />
<path d="M80456 73014
L80512 72986
L80625 72986
L80681 73014
L80709 73042
L80737 73099
L80737 73267
L80709 73323
L80681 73352
L80625 73380
L80512 73380
L80456 73352
" />
</g>
<g style="fill:#000000; fill-opacity:0.0; 
stroke:#000000; stroke-width:39.3701; stroke-opacity:1; 
stroke-linecap:round; stroke-linejoin:round;">
</g>
<g style="fill:#000000; fill-opacity:0.0; 
stroke:#000000; stroke-width:59.0551; stroke-opacity:1; 
stroke-linecap:round; stroke-linejoin:round;">
<path d="M69685 71459
L112205 71459
" />
</g>
<g style="fill:#000000; fill-opacity:0.0; 
stroke:#000000; stroke-width:39.3701; stroke-opacity:1; 
stroke-linecap:round; stroke-linejoin:round;">
</g>
<g style="fill:#000000; fill-opacity:0.0; 
stroke:#000000; stroke-width:59.0551; stroke-opacity:1; 
stroke-linecap:round; stroke-linejoin:round;">
<path d="M70192 72289
L70276 72317
L70417 72317
L70473 72289
L70501 72260
L70529 72204
L70529 72148
L70501 72092
L70473 72064
L70417 72036
L70304 72007
L70248 71979
L70220 71951
L70192 71895
L70192 71839
L70220 71782
L70248 71754
L70304 71726
L70445 71726
L70529 71754
" />
<path d="M70782 72317
L70782 71726
" />
<path d="M71035 72317
L71035 72007
L71007 71951
L70951 71923
L70867 71923
L70810 71951
L70782 71979
" />
<path d="M71541 72289
L71485 72317
L71373 72317
L71316 72289
L71288 72232
L71288 72007
L71316 71951
L71373 71923
L71485 71923
L71541 71951
L71570 72007
L71570 72064
L71288 72120
" />
<path d="M72048 72289
L71991 72317
L71879 72317
L71823 72289
L71795 72232
L71795 72007
L71823 71951
L71879 71923
L71991 71923
L72048 71951
L72076 72007
L72076 72064
L71795 72120
" />
<path d="M72244 71923
L72469 71923
" />
<path d="M72329 71726
L72329 72232
L72357 72289
L72413 72317
L72469 72317
" />
<path d="M72666 72260
L72694 72289
L72666 72317
L72638 72289
L72666 72260
L72666 72317
" />
<path d="M72666 71951
L72694 71979
L72666 72007
L72638 71979
L72666 71951
L72666 72007
" />
</g>
<g style="fill:#000000; fill-opacity:0.0; 
stroke:#000000; stroke-width:39.3701; stroke-opacity:1; 
stroke-linecap:round; stroke-linejoin:round;">
</g>
<g style="fill:#000000; fill-opacity:0.0; 
stroke:#000000; stroke-width:59.0551; stroke-opacity:1; 
stroke-linecap:round; stroke-linejoin:round;">
<path d="M77559 75396
L77559 76577
" />
</g>
<g style="fill:#000000; fill-opacity:0.0; 
stroke:#000000; stroke-width:39.3701; stroke-opacity:1; 
stroke-linecap:round; stroke-linejoin:round;">
</g>
<g style="fill:#000000; fill-opacity:0.0; 
stroke:#000000; stroke-width:59.0551; stroke-opacity:1; 
stroke-linecap:round; stroke-linejoin:round;">
<path d="M102756 75396
L102756 77955
" />
</g>
<g style="fill:#000000; fill-opacity:0.0; 
stroke:#000000; stroke-width:59.0551; stroke-opacity:1; 
stroke-linecap:round; stroke-linejoin:round;">
<path d="M105315 68897
L105315 9842
" />
<path d="M105315 9842
L65945 9842
" />
<path d="M105315 68897
L65945 68897
" />
<path d="M65945 68897
L65945 9842
" />
</g>
<g style="fill:#000000; fill-opacity:0.0; 
stroke:#000000; stroke-width:0; stroke-opacity:1; 
stroke-linecap:round; stroke-linejoin:round;">
</g>
<g style="fill:#000000; fill-opacity:1.0; 
stroke:#000000; stroke-width:0; stroke-opacity:1; 
stroke-linecap:round; stroke-linejoin:round;">
<polyline style="fill-rule:evenodd;"
points="71093,27874
70443,27874
70443,28425
71093,28425
71093,27874
" /> 
<polyline style="fill-rule:evenodd;"
points="71093,28661
70443,28661
70443,29212
71093,29212
71093,28661
" /> 
<polyline style="fill-rule:evenodd;"
points="69237,34127
69237,35163
70103,35163
70103,34127
69237,34127
" /> 
<polyline style="fill-rule:evenodd;"
points="68087,34127
68087,35163
68953,35163
68953,34127
68087,34127
" /> 
<polyline style="fill-rule:evenodd;"
points="82849,25350
83884,25350
83884,24484
82849,24484
82849,25350
" /> 
<polyline style="fill-rule:evenodd;"
points="82849,26500
83884,26500
83884,25633
82849,25633
82849,26500
" /> 
<polyline style="fill-rule:evenodd;"
points="88977,50265
88977,49891
88189,49891
88189,50265
88977,50265
" /> 
<polyline style="fill-rule:evenodd;"
points="88977,50580
88977,50206
88189,50206
88189,50580
88977,50580
" /> 
<polyline style="fill-rule:evenodd;"
points="88977,50895
88977,50521
88189,50521
88189,50895
88977,50895
" /> 
<polyline style="fill-rule:evenodd;"
points="88977,51210
88977,50836
88189,50836
88189,51210
88977,51210
" /> 
<polyline style="fill-rule:evenodd;"
points="88977,51525
88977,51151
88189,51151
88189,51525
88977,51525
" /> 
<polyline style="fill-rule:evenodd;"
points="88977,51840
88977,51466
88189,51466
88189,51840
88977,51840
" /> 
<polyline style="fill-rule:evenodd;"
points="88977,52155
88977,51781
88189,51781
88189,52155
88977,52155
" /> 
<polyline style="fill-rule:evenodd;"
points="88977,52470
88977,52096
88189,52096
88189,52470
88977,52470
" /> 
<polyline style="fill-rule:evenodd;"
points="87825,53248
88199,53248
88199,52460
87825,52460
87825,53248
" /> 
<polyline style="fill-rule:evenodd;"
points="87510,53248
87884,53248
87884,52460
87510,52460
87510,53248
" /> 
<polyline style="fill-rule:evenodd;"
points="87195,53248
87569,53248
87569,52460
87195,52460
87195,53248
" /> 
<polyline style="fill-rule:evenodd;"
points="86880,53248
87254,53248
87254,52460
86880,52460
86880,53248
" /> 
<polyline style="fill-rule:evenodd;"
points="86565,53248
86939,53248
86939,52460
86565,52460
86565,53248
" /> 
<polyline style="fill-rule:evenodd;"
points="86250,53248
86624,53248
86624,52460
86250,52460
86250,53248
" /> 
<polyline style="fill-rule:evenodd;"
points="85935,53248
86309,53248
86309,52460
85935,52460
85935,53248
" /> 
<polyline style="fill-rule:evenodd;"
points="85620,53248
85994,53248
85994,52460
85620,52460
85620,53248
" /> 
<polyline style="fill-rule:evenodd;"
points="85630,52470
85630,52096
84843,52096
84843,52470
85630,52470
" /> 
<polyline style="fill-rule:evenodd;"
points="85630,52155
85630,51781
84843,51781
84843,52155
85630,52155
" /> 
<polyline style="fill-rule:evenodd;"
points="85630,51840
85630,51466
84843,51466
84843,51840
85630,51840
" /> 
<polyline style="fill-rule:evenodd;"
points="85630,51525
85630,51151
84843,51151
84843,51525
85630,51525
" /> 
<polyline style="fill-rule:evenodd;"
points="85630,51210
85630,50836
84843,50836
84843,51210
85630,51210
" /> 
<polyline style="fill-rule:evenodd;"
points="85630,50895
85630,50521
84843,50521
84843,50895
85630,50895
" /> 
<polyline style="fill-rule:evenodd;"
points="85630,50580
85630,50206
84843,50206
84843,50580
85630,50580
" /> 
<polyline style="fill-rule:evenodd;"
points="85630,50265
85630,49891
84843,49891
84843,50265
85630,50265
" /> 
<polyline style="fill-rule:evenodd;"
points="85620,49901
85994,49901
85994,49114
85620,49114
85620,49901
" /> 
<polyline style="fill-rule:evenodd;"
points="85935,49901
86309,49901
86309,49114
85935,49114
85935,49901
" /> 
<polyline style="fill-rule:evenodd;"
points="86250,49901
86624,49901
86624,49114
86250,49114
86250,49901
" /> 
<polyline style="fill-rule:evenodd;"
points="86565,49901
86939,49901
86939,49114
86565,49114
86565,49901
" /> 
<polyline style="fill-rule:evenodd;"
points="86880,49901
87254,49901
87254,49114
86880,49114
86880,49901
" /> 
<polyline style="fill-rule:evenodd;"
points="87195,49901
87569,49901
87569,49114
87195,49114
87195,49901
" /> 
<polyline style="fill-rule:evenodd;"
points="87510,49901
87884,49901
87884,49114
87510,49114
87510,49901
" /> 
<polyline style="fill-rule:evenodd;"
points="87825,49901
88199,49901
88199,49114
87825,49114
87825,49901
" /> 
<polyline style="fill-rule:evenodd;"
points="91024,39665
90158,39665
90158,40374
91024,40374
91024,39665
" /> 
<polyline style="fill-rule:evenodd;"
points="91024,38366
90158,38366
90158,39074
91024,39074
91024,38366
" /> 
<polyline style="fill-rule:evenodd;"
points="92914,38366
92048,38366
92048,39074
92914,39074
92914,38366
" /> 
<polyline style="fill-rule:evenodd;"
points="92914,39665
92048,39665
92048,40374
92914,40374
92914,39665
" /> 
<polyline style="fill-rule:evenodd;"
points="83150,39665
82284,39665
82284,40374
83150,40374
83150,39665
" /> 
<polyline style="fill-rule:evenodd;"
points="83150,38366
82284,38366
82284,39074
83150,39074
83150,38366
" /> 
<polyline style="fill-rule:evenodd;"
points="85040,38366
84174,38366
84174,39074
85040,39074
85040,38366
" /> 
<polyline style="fill-rule:evenodd;"
points="85040,39665
84174,39665
84174,40374
85040,40374
85040,39665
" /> 
<polyline style="fill-rule:evenodd;"
points="76083,47755
76083,48622
76792,48622
76792,47755
76083,47755
" /> 
<polyline style="fill-rule:evenodd;"
points="74784,47755
74784,48622
75492,48622
75492,47755
74784,47755
" /> 
<polyline style="fill-rule:evenodd;"
points="74784,45866
74784,46732
75492,46732
75492,45866
74784,45866
" /> 
<polyline style="fill-rule:evenodd;"
points="76083,45866
76083,46732
76792,46732
76792,45866
76083,45866
" /> 
<polyline style="fill-rule:evenodd;"
points="76083,55629
76083,56496
76792,56496
76792,55629
76083,55629
" /> 
<polyline style="fill-rule:evenodd;"
points="74784,55629
74784,56496
75492,56496
75492,55629
74784,55629
" /> 
<polyline style="fill-rule:evenodd;"
points="74784,53740
74784,54606
75492,54606
75492,53740
74784,53740
" /> 
<polyline style="fill-rule:evenodd;"
points="76083,53740
76083,54606
76792,54606
76792,53740
76083,53740
" /> 
<polyline style="fill-rule:evenodd;"
points="84174,62696
85040,62696
85040,61988
84174,61988
84174,62696
" /> 
<polyline style="fill-rule:evenodd;"
points="84174,63996
85040,63996
85040,63287
84174,63287
84174,63996
" /> 
<polyline style="fill-rule:evenodd;"
points="82284,63996
83150,63996
83150,63287
82284,63287
82284,63996
" /> 
<polyline style="fill-rule:evenodd;"
points="82284,62696
83150,62696
83150,61988
82284,61988
82284,62696
" /> 
<polyline style="fill-rule:evenodd;"
points="92048,62696
92914,62696
92914,61988
92048,61988
92048,62696
" /> 
<polyline style="fill-rule:evenodd;"
points="92048,63996
92914,63996
92914,63287
92048,63287
92048,63996
" /> 
<polyline style="fill-rule:evenodd;"
points="90158,63996
91024,63996
91024,63287
90158,63287
90158,63996
" /> 
<polyline style="fill-rule:evenodd;"
points="90158,62696
91024,62696
91024,61988
90158,61988
90158,62696
" /> 
<polyline style="fill-rule:evenodd;"
points="99115,54606
99115,53740
98406,53740
98406,54606
99115,54606
" /> 
<polyline style="fill-rule:evenodd;"
points="100414,54606
100414,53740
99705,53740
99705,54606
100414,54606
" /> 
<polyline style="fill-rule:evenodd;"
points="100414,56496
100414,55629
99705,55629
99705,56496
100414,56496
" /> 
<polyline style="fill-rule:evenodd;"
points="99115,56496
99115,55629
98406,55629
98406,56496
99115,56496
" /> 
<polyline style="fill-rule:evenodd;"
points="99115,46732
99115,45866
98406,45866
98406,46732
99115,46732
" /> 
<polyline style="fill-rule:evenodd;"
points="100414,46732
100414,45866
99705,45866
99705,46732
100414,46732
" /> 
<polyline style="fill-rule:evenodd;"
points="100414,48622
100414,47755
99705,47755
99705,48622
100414,48622
" /> 
<polyline style="fill-rule:evenodd;"
points="99115,48622
99115,47755
98406,47755
98406,48622
99115,48622
" /> 
<polyline style="fill-rule:evenodd;"
points="99115,30984
99115,30118
98406,30118
98406,30984
99115,30984
" /> 
<polyline style="fill-rule:evenodd;"
points="100414,30984
100414,30118
99705,30118
99705,30984
100414,30984
" /> 
<polyline style="fill-rule:evenodd;"
points="100414,32874
100414,32007
99705,32007
99705,32874
100414,32874
" /> 
<polyline style="fill-rule:evenodd;"
points="99115,32874
99115,32007
98406,32007
98406,32874
99115,32874
" /> 
<polyline style="fill-rule:evenodd;"
points="99115,23110
99115,22244
98406,22244
98406,23110
99115,23110
" /> 
<polyline style="fill-rule:evenodd;"
points="100414,23110
100414,22244
99705,22244
99705,23110
100414,23110
" /> 
<polyline style="fill-rule:evenodd;"
points="100414,25000
100414,24133
99705,24133
99705,25000
100414,25000
" /> 
<polyline style="fill-rule:evenodd;"
points="99115,25000
99115,24133
98406,24133
98406,25000
99115,25000
" /> 
<polyline style="fill-rule:evenodd;"
points="91024,16043
90158,16043
90158,16751
91024,16751
91024,16043
" /> 
<polyline style="fill-rule:evenodd;"
points="91024,14744
90158,14744
90158,15452
91024,15452
91024,14744
" /> 
<polyline style="fill-rule:evenodd;"
points="92914,14744
92048,14744
92048,15452
92914,15452
92914,14744
" /> 
<polyline style="fill-rule:evenodd;"
points="92914,16043
92048,16043
92048,16751
92914,16751
92914,16043
" /> 
<polyline style="fill-rule:evenodd;"
points="83150,16043
82284,16043
82284,16751
83150,16751
83150,16043
" /> 
<polyline style="fill-rule:evenodd;"
points="83150,14744
82284,14744
82284,15452
83150,15452
83150,14744
" /> 
<polyline style="fill-rule:evenodd;"
points="85040,14744
84174,14744
84174,15452
85040,15452
85040,14744
" /> 
<polyline style="fill-rule:evenodd;"
points="85040,16043
84174,16043
84174,16751
85040,16751
85040,16043
" /> 
<polyline style="fill-rule:evenodd;"
points="76083,24133
76083,25000
76792,25000
76792,24133
76083,24133
" /> 
<polyline style="fill-rule:evenodd;"
points="74784,24133
74784,25000
75492,25000
75492,24133
74784,24133
" /> 
<polyline style="fill-rule:evenodd;"
points="74784,22244
74784,23110
75492,23110
75492,22244
74784,22244
" /> 
<polyline style="fill-rule:evenodd;"
points="76083,22244
76083,23110
76792,23110
76792,22244
76083,22244
" /> 
<polyline style="fill-rule:evenodd;"
points="76083,32007
76083,32874
76792,32874
76792,32007
76083,32007
" /> 
<polyline style="fill-rule:evenodd;"
points="74784,32007
74784,32874
75492,32874
75492,32007
74784,32007
" /> 
<polyline style="fill-rule:evenodd;"
points="74784,30118
74784,30984
75492,30984
75492,30118
74784,30118
" /> 
<polyline style="fill-rule:evenodd;"
points="76083,30118
76083,30984
76792,30984
76792,30118
76083,30118
" /> 
<polyline style="fill-rule:evenodd;"
points="70965,63503
70965,64370
71674,64370
71674,63503
70965,63503
" /> 
<polyline style="fill-rule:evenodd;"
points="69666,63503
69666,64370
70374,64370
70374,63503
69666,63503
" /> 
<polyline style="fill-rule:evenodd;"
points="69666,61614
69666,62480
70374,62480
70374,61614
69666,61614
" /> 
<polyline style="fill-rule:evenodd;"
points="70965,61614
70965,62480
71674,62480
71674,61614
70965,61614
" /> 
<polyline style="fill-rule:evenodd;"
points="70650,62716
70650,63267
71004,63267
71004,62716
70650,62716
" /> 
<polyline style="fill-rule:evenodd;"
points="70335,62716
70335,63267
70689,63267
70689,62716
70335,62716
" /> 
<polyline style="fill-rule:evenodd;"
points="92927,32455
92927,33292
93885,33292
93885,32455
92927,32455
" /> 
</g>
<g style="fill:#000000; fill-opacity:1.0; 
stroke:#000000; stroke-width:837.48; stroke-opacity:1; 
stroke-linecap:round; stroke-linejoin:round;">
</g>
<g style="fill:#000000; fill-opacity:0.0; 
stroke:#000000; stroke-width:837.48; stroke-opacity:1; 
stroke-linecap:round; stroke-linejoin:round;">
<path d="M93346 31874
L93466 31874
" />
<path d="M93346 30874
L93466 30874
" />
</g>
<g style="fill:#000000; fill-opacity:0.0; 
stroke:#000000; stroke-width:0; stroke-opacity:1; 
stroke-linecap:round; stroke-linejoin:round;">
</g>
<g style="fill:#000000; fill-opacity:1.0; 
stroke:#000000; stroke-width:0; stroke-opacity:1; 
stroke-linecap:round; stroke-linejoin:round;">
<polyline style="fill-rule:evenodd;"
points="80722,23400
80722,24237
81680,24237
81680,23400
80722,23400
" /> 
</g>
<g style="fill:#000000; fill-opacity:1.0; 
stroke:#000000; stroke-width:837.48; stroke-opacity:1; 
stroke-linecap:round; stroke-linejoin:round;">
</g>
<g style="fill:#000000; fill-opacity:0.0; 
stroke:#000000; stroke-width:837.48; stroke-opacity:1; 
stroke-linecap:round; stroke-linejoin:round;">
<path d="M81141 22818
L81261 22818
" />
<path d="M81141 21818
L81261 21818
" />
<path d="M81141 20818
L81261 20818
" />
</g>
<g style="fill:#000000; fill-opacity:0.0; 
stroke:#000000; stroke-width:0; stroke-opacity:1; 
stroke-linecap:round; stroke-linejoin:round;">
</g>
<g style="fill:#000000; fill-opacity:1.0; 
stroke:#000000; stroke-width:0; stroke-opacity:1; 
stroke-linecap:round; stroke-linejoin:round;">
<polyline style="fill-rule:evenodd;"
points="81718,56077
80881,56077
80881,56914
81718,56914
81718,56077
" /> 
</g>
<g style="fill:#000000; fill-opacity:1.0; 
stroke:#000000; stroke-width:837.48; stroke-opacity:1; 
stroke-linecap:round; stroke-linejoin:round;">
</g>
<g style="fill:#000000; fill-opacity:0.0; 
stroke:#000000; stroke-width:837.48; stroke-opacity:1; 
stroke-linecap:round; stroke-linejoin:round;">
<path d="M81300 57496
L81300 57496
" />
<path d="M82300 56496
L82300 56496
" />
<path d="M82300 57496
L82300 57496
" />
<path d="M83300 56496
L83300 56496
" />
<path d="M83300 57496
L83300 57496
" />
</g>
<g style="fill:#000000; fill-opacity:0.0; 
stroke:#000000; stroke-width:0; stroke-opacity:1; 
stroke-linecap:round; stroke-linejoin:round;">
</g>
<g style="fill:#000000; fill-opacity:1.0; 
stroke:#000000; stroke-width:0; stroke-opacity:1; 
stroke-linecap:round; stroke-linejoin:round;">
<polyline style="fill-rule:evenodd;"
points="89272,27519
89272,28188
89705,28188
89705,27519
89272,27519
" /> 
<polyline style="fill-rule:evenodd;"
points="90020,27519
90020,28188
90453,28188
90453,27519
90020,27519
" /> 
<polyline style="fill-rule:evenodd;"
points="87166,24212
87835,24212
87835,23779
87166,23779
87166,24212
" /> 
<polyline style="fill-rule:evenodd;"
points="87166,23464
87835,23464
87835,23031
87166,23031
87166,23464
" /> 
<polyline style="fill-rule:evenodd;"
points="84174,43917
84174,44586
84607,44586
84607,43917
84174,43917
" /> 
<polyline style="fill-rule:evenodd;"
points="84922,43917
84922,44586
85355,44586
85355,43917
84922,43917
" /> 
<polyline style="fill-rule:evenodd;"
points="88760,26998
88760,26742
88091,26742
88091,26998
88760,26998
" /> 
<polyline style="fill-rule:evenodd;"
points="88760,27194
88760,26938
88091,26938
88091,27194
88760,27194
" /> 
<polyline style="fill-rule:evenodd;"
points="88760,27391
88760,27135
88091,27135
88091,27391
88760,27391
" /> 
<polyline style="fill-rule:evenodd;"
points="88760,27588
88760,27332
88091,27332
88091,27588
88760,27588
" /> 
<polyline style="fill-rule:evenodd;"
points="88760,27785
88760,27529
88091,27529
88091,27785
88760,27785
" /> 
<polyline style="fill-rule:evenodd;"
points="88760,27982
88760,27726
88091,27726
88091,27982
88760,27982
" /> 
<polyline style="fill-rule:evenodd;"
points="88760,28179
88760,27923
88091,27923
88091,28179
88760,28179
" /> 
<polyline style="fill-rule:evenodd;"
points="88760,28375
88760,28120
88091,28120
88091,28375
88760,28375
" /> 
<polyline style="fill-rule:evenodd;"
points="88760,28572
88760,28316
88091,28316
88091,28572
88760,28572
" /> 
<polyline style="fill-rule:evenodd;"
points="88760,28769
88760,28513
88091,28513
88091,28769
88760,28769
" /> 
<polyline style="fill-rule:evenodd;"
points="88760,28966
88760,28710
88091,28710
88091,28966
88760,28966
" /> 
<polyline style="fill-rule:evenodd;"
points="88760,29163
88760,28907
88091,28907
88091,29163
88760,29163
" /> 
<polyline style="fill-rule:evenodd;"
points="87668,30000
87924,30000
87924,29330
87668,29330
87668,30000
" /> 
<polyline style="fill-rule:evenodd;"
points="87471,30000
87727,30000
87727,29330
87471,29330
87471,30000
" /> 
<polyline style="fill-rule:evenodd;"
points="87274,30000
87530,30000
87530,29330
87274,29330
87274,30000
" /> 
<polyline style="fill-rule:evenodd;"
points="87077,30000
87333,30000
87333,29330
87077,29330
87077,30000
" /> 
<polyline style="fill-rule:evenodd;"
points="86880,30000
87136,30000
87136,29330
86880,29330
86880,30000
" /> 
<polyline style="fill-rule:evenodd;"
points="86683,30000
86939,30000
86939,29330
86683,29330
86683,30000
" /> 
<polyline style="fill-rule:evenodd;"
points="86487,30000
86742,30000
86742,29330
86487,29330
86487,30000
" /> 
<polyline style="fill-rule:evenodd;"
points="86290,30000
86546,30000
86546,29330
86290,29330
86290,30000
" /> 
<polyline style="fill-rule:evenodd;"
points="86093,30000
86349,30000
86349,29330
86093,29330
86093,30000
" /> 
<polyline style="fill-rule:evenodd;"
points="85896,30000
86152,30000
86152,29330
85896,29330
85896,30000
" /> 
<polyline style="fill-rule:evenodd;"
points="85699,30000
85955,30000
85955,29330
85699,29330
85699,30000
" /> 
<polyline style="fill-rule:evenodd;"
points="85502,30000
85758,30000
85758,29330
85502,29330
85502,30000
" /> 
<polyline style="fill-rule:evenodd;"
points="85335,29163
85335,28907
84666,28907
84666,29163
85335,29163
" /> 
<polyline style="fill-rule:evenodd;"
points="85335,28966
85335,28710
84666,28710
84666,28966
85335,28966
" /> 
<polyline style="fill-rule:evenodd;"
points="85335,28769
85335,28513
84666,28513
84666,28769
85335,28769
" /> 
<polyline style="fill-rule:evenodd;"
points="85335,28572
85335,28316
84666,28316
84666,28572
85335,28572
" /> 
<polyline style="fill-rule:evenodd;"
points="85335,28375
85335,28120
84666,28120
84666,28375
85335,28375
" /> 
<polyline style="fill-rule:evenodd;"
points="85335,28179
85335,27923
84666,27923
84666,28179
85335,28179
" /> 
<polyline style="fill-rule:evenodd;"
points="85335,27982
85335,27726
84666,27726
84666,27982
85335,27982
" /> 
<polyline style="fill-rule:evenodd;"
points="85335,27785
85335,27529
84666,27529
84666,27785
85335,27785
" /> 
<polyline style="fill-rule:evenodd;"
points="85335,27588
85335,27332
84666,27332
84666,27588
85335,27588
" /> 
<polyline style="fill-rule:evenodd;"
points="85335,27391
85335,27135
84666,27135
84666,27391
85335,27391
" /> 
<polyline style="fill-rule:evenodd;"
points="85335,27194
85335,26938
84666,26938
84666,27194
85335,27194
" /> 
<polyline style="fill-rule:evenodd;"
points="85335,26998
85335,26742
84666,26742
84666,26998
85335,26998
" /> 
<polyline style="fill-rule:evenodd;"
points="85502,26574
85758,26574
85758,25905
85502,25905
85502,26574
" /> 
<polyline style="fill-rule:evenodd;"
points="85699,26574
85955,26574
85955,25905
85699,25905
85699,26574
" /> 
<polyline style="fill-rule:evenodd;"
points="85896,26574
86152,26574
86152,25905
85896,25905
85896,26574
" /> 
<polyline style="fill-rule:evenodd;"
points="86093,26574
86349,26574
86349,25905
86093,25905
86093,26574
" /> 
<polyline style="fill-rule:evenodd;"
points="86290,26574
86546,26574
86546,25905
86290,25905
86290,26574
" /> 
<polyline style="fill-rule:evenodd;"
points="86487,26574
86742,26574
86742,25905
86487,25905
86487,26574
" /> 
<polyline style="fill-rule:evenodd;"
points="86683,26574
86939,26574
86939,25905
86683,25905
86683,26574
" /> 
<polyline style="fill-rule:evenodd;"
points="86880,26574
87136,26574
87136,25905
86880,25905
86880,26574
" /> 
<polyline style="fill-rule:evenodd;"
points="87077,26574
87333,26574
87333,25905
87077,25905
87077,26574
" /> 
<polyline style="fill-rule:evenodd;"
points="87274,26574
87530,26574
87530,25905
87274,25905
87274,26574
" /> 
<polyline style="fill-rule:evenodd;"
points="87471,26574
87727,26574
87727,25905
87471,25905
87471,26574
" /> 
<polyline style="fill-rule:evenodd;"
points="87668,26574
87924,26574
87924,25905
87668,25905
87668,26574
" /> 
<polyline style="fill-rule:evenodd;"
points="69894,30674
69894,29717
68296,29717
68296,30674
69894,30674
" /> 
<polyline style="fill-rule:evenodd;"
points="69374,33274
69374,32317
68816,32317
68816,33274
69374,33274
" /> 
<polyline style="fill-rule:evenodd;"
points="68474,33274
68474,32317
67916,32317
67916,33274
68474,33274
" /> 
<polyline style="fill-rule:evenodd;"
points="70274,33274
70274,32317
69716,32317
69716,33274
70274,33274
" /> 
<polyline style="fill-rule:evenodd;"
points="91851,27519
92795,27519
92795,25196
91851,25196
91851,27519
" /> 
<polyline style="fill-rule:evenodd;"
points="91851,23819
92795,23819
92795,21496
91851,21496
91851,23819
" /> 
<polyline style="fill-rule:evenodd;"
points="92245,55570
93189,55570
93189,53247
92245,53247
92245,55570
" /> 
<polyline style="fill-rule:evenodd;"
points="92245,51870
93189,51870
93189,49547
92245,49547
92245,51870
" /> 
<polyline style="fill-rule:evenodd;"
points="81977,32762
81977,32485
81619,32485
81619,32762
81977,32762
" /> 
<polyline style="fill-rule:evenodd;"
points="81977,33262
81977,32985
81619,32985
81619,33262
81977,33262
" /> 
<polyline style="fill-rule:evenodd;"
points="81177,32762
81177,32485
80819,32485
80819,32762
81177,32762
" /> 
<polyline style="fill-rule:evenodd;"
points="81977,33012
81977,32735
81619,32735
81619,33012
81977,33012
" /> 
<polyline style="fill-rule:evenodd;"
points="81177,33262
81177,32985
80819,32985
80819,33262
81177,33262
" /> 
<polyline style="fill-rule:evenodd;"
points="81116,30388
81116,31225
82074,31225
82074,30388
81116,30388
" /> 
</g>
<g style="fill:#000000; fill-opacity:1.0; 
stroke:#000000; stroke-width:837.48; stroke-opacity:1; 
stroke-linecap:round; stroke-linejoin:round;">
</g>
<g style="fill:#000000; fill-opacity:0.0; 
stroke:#000000; stroke-width:837.48; stroke-opacity:1; 
stroke-linecap:round; stroke-linejoin:round;">
<path d="M81535 29807
L81655 29807
" />
<path d="M81535 28807
L81655 28807
" />
<path d="M81535 27807
L81655 27807
" />
<path d="M81535 26807
L81655 26807
" />
</g>
<g style="fill:#000000; fill-opacity:0.0; 
stroke:#000000; stroke-width:757.48; stroke-opacity:1; 
stroke-linecap:round; stroke-linejoin:round;">
<path d="M70567 43586
L69592 43586
" />
<path d="M70567 44586
L69592 44586
" />
<path d="M70567 45586
L69592 45586
" />
<path d="M68598 43586
L67623 43586
" />
<path d="M68598 44586
L67623 44586
" />
<path d="M68598 45586
L67623 45586
" />
<path d="M70567 38468
L69592 38468
" />
<path d="M70567 39468
L69592 39468
" />
<path d="M70567 40468
L69592 40468
" />
<path d="M68598 38468
L67623 38468
" />
<path d="M68598 39468
L67623 39468
" />
<path d="M68598 40468
L67623 40468
" />
<path d="M70567 48712
L69592 48712
" />
<path d="M70567 49712
L69592 49712
" />
<path d="M68598 48712
L67623 48712
" />
<path d="M68598 49712
L67623 49712
" />
</g>
<g style="fill:#000000; fill-opacity:0.0; 
stroke:#000000; stroke-width:0; stroke-opacity:1; 
stroke-linecap:round; stroke-linejoin:round;">
</g>
<g style="fill:#000000; fill-opacity:1.0; 
stroke:#000000; stroke-width:0; stroke-opacity:1; 
stroke-linecap:round; stroke-linejoin:round;">
<polyline style="fill-rule:evenodd;"
points="91117,34238
91955,34238
91955,33281
91117,33281
91117,34238
" /> 
</g>
<g style="fill:#000000; fill-opacity:1.0; 
stroke:#000000; stroke-width:837.48; stroke-opacity:1; 
stroke-linecap:round; stroke-linejoin:round;">
</g>
<g style="fill:#000000; fill-opacity:0.0; 
stroke:#000000; stroke-width:837.48; stroke-opacity:1; 
stroke-linecap:round; stroke-linejoin:round;">
<path d="M90536 33819
L90536 33699
" />
<path d="M89536 33819
L89536 33699
" />
<path d="M88536 33819
L88536 33699
" />
<path d="M87536 33819
L87536 33699
" />
<path d="M86536 33819
L86536 33699
" />
<path d="M85536 33819
L85536 33699
" />
<path d="M84536 33819
L84536 33699
" />
<path d="M83536 33819
L83536 33699
" />
</g>
<g style="fill:#000000; fill-opacity:0.0; 
stroke:#000000; stroke-width:0; stroke-opacity:1; 
stroke-linecap:round; stroke-linejoin:round;">
</g>
<g style="fill:#000000; fill-opacity:1.0; 
stroke:#000000; stroke-width:0; stroke-opacity:1; 
stroke-linecap:round; stroke-linejoin:round;">
<polyline style="fill-rule:evenodd;"
points="84179,20879
83341,20879
83341,21837
84179,21837
84179,20879
" /> 
</g>
<g style="fill:#000000; fill-opacity:1.0; 
stroke:#000000; stroke-width:837.48; stroke-opacity:1; 
stroke-linecap:round; stroke-linejoin:round;">
</g>
<g style="fill:#000000; fill-opacity:0.0; 
stroke:#000000; stroke-width:837.48; stroke-opacity:1; 
stroke-linecap:round; stroke-linejoin:round;">
<path d="M84760 21298
L84760 21418
" />
<path d="M85760 21298
L85760 21418
" />
<path d="M86760 21298
L86760 21418
" />
<path d="M87760 21298
L87760 21418
" />
<path d="M88760 21298
L88760 21418
" />
<path d="M89760 21298
L89760 21418
" />
</g>
<g style="fill:#000000; fill-opacity:0.0; 
stroke:#000000; stroke-width:0; stroke-opacity:1; 
stroke-linecap:round; stroke-linejoin:round;">
</g>
<g style="fill:#000000; fill-opacity:1.0; 
stroke:#000000; stroke-width:0; stroke-opacity:1; 
stroke-linecap:round; stroke-linejoin:round;">
<polyline style="fill-rule:evenodd;"
points="82112,46765
81275,46765
81275,47722
82112,47722
82112,46765
" /> 
</g>
<g style="fill:#000000; fill-opacity:1.0; 
stroke:#000000; stroke-width:837.48; stroke-opacity:1; 
stroke-linecap:round; stroke-linejoin:round;">
</g>
<g style="fill:#000000; fill-opacity:0.0; 
stroke:#000000; stroke-width:837.48; stroke-opacity:1; 
stroke-linecap:round; stroke-linejoin:round;">
<path d="M82693 47184
L82693 47304
" />
<path d="M83693 47184
L83693 47304
" />
<path d="M84693 47184
L84693 47304
" />
<path d="M85693 47184
L85693 47304
" />
<path d="M86693 47184
L86693 47304
" />
</g>
<g style="fill:#000000; fill-opacity:0.0; 
stroke:#000000; stroke-width:0; stroke-opacity:1; 
stroke-linecap:round; stroke-linejoin:round;">
</g>
<g style="fill:#000000; fill-opacity:1.0; 
stroke:#000000; stroke-width:0; stroke-opacity:1; 
stroke-linecap:round; stroke-linejoin:round;">
<polyline style="fill-rule:evenodd;"
points="88707,44698
87869,44698
87869,45655
88707,45655
88707,44698
" /> 
</g>
<g style="fill:#000000; fill-opacity:1.0; 
stroke:#000000; stroke-width:837.48; stroke-opacity:1; 
stroke-linecap:round; stroke-linejoin:round;">
</g>
<g style="fill:#000000; fill-opacity:0.0; 
stroke:#000000; stroke-width:837.48; stroke-opacity:1; 
stroke-linecap:round; stroke-linejoin:round;">
<path d="M89288 45117
L89288 45237
" />
<path d="M90288 45117
L90288 45237
" />
</g>
<g style="fill:#000000; fill-opacity:0.0; 
stroke:#000000; stroke-width:0; stroke-opacity:1; 
stroke-linecap:round; stroke-linejoin:round;">
</g>
<g style="fill:#000000; fill-opacity:1.0; 
stroke:#000000; stroke-width:0; stroke-opacity:1; 
stroke-linecap:round; stroke-linejoin:round;">
<polyline style="fill-rule:evenodd;"
points="90719,28188
91172,28188
91172,27716
90719,27716
90719,28188
" /> 
<polyline style="fill-rule:evenodd;"
points="90719,27598
91172,27598
91172,27125
90719,27125
90719,27598
" /> 
<polyline style="fill-rule:evenodd;"
points="77431,32027
77884,32027
77884,31555
77431,31555
77431,32027
" /> 
<polyline style="fill-rule:evenodd;"
points="77431,31437
77884,31437
77884,30964
77431,30964
77431,31437
" /> 
<polyline style="fill-rule:evenodd;"
points="77431,24153
77884,24153
77884,23681
77431,23681
77431,24153
" /> 
<polyline style="fill-rule:evenodd;"
points="77431,23562
77884,23562
77884,23090
77431,23090
77431,23562
" /> 
<polyline style="fill-rule:evenodd;"
points="84193,61348
84193,60895
83721,60895
83721,61348
84193,61348
" /> 
<polyline style="fill-rule:evenodd;"
points="83603,61348
83603,60895
83130,60895
83130,61348
83603,61348
" /> 
<polyline style="fill-rule:evenodd;"
points="72215,63523
72668,63523
72668,63051
72215,63051
72215,63523
" /> 
<polyline style="fill-rule:evenodd;"
points="72215,62933
72668,62933
72668,62460
72215,62460
72215,62933
" /> 
<polyline style="fill-rule:evenodd;"
points="90581,25157
90128,25157
90128,25629
90581,25629
90581,25157
" /> 
<polyline style="fill-rule:evenodd;"
points="90581,25748
90128,25748
90128,26220
90581,26220
90581,25748
" /> 
<polyline style="fill-rule:evenodd;"
points="83130,17391
83130,17844
83603,17844
83603,17391
83130,17391
" /> 
<polyline style="fill-rule:evenodd;"
points="83721,17391
83721,17844
84193,17844
84193,17391
83721,17391
" /> 
<polyline style="fill-rule:evenodd;"
points="89242,51318
89695,51318
89695,50846
89242,50846
89242,51318
" /> 
<polyline style="fill-rule:evenodd;"
points="89242,50728
89695,50728
89695,50255
89242,50255
89242,50728
" /> 
<polyline style="fill-rule:evenodd;"
points="97766,23090
97313,23090
97313,23562
97766,23562
97766,23090
" /> 
<polyline style="fill-rule:evenodd;"
points="97766,23681
97313,23681
97313,24153
97766,24153
97766,23681
" /> 
<polyline style="fill-rule:evenodd;"
points="97766,30964
97313,30964
97313,31437
97766,31437
97766,30964
" /> 
<polyline style="fill-rule:evenodd;"
points="97766,31555
97313,31555
97313,32027
97766,32027
97766,31555
" /> 
<polyline style="fill-rule:evenodd;"
points="91201,30088
91201,30541
91674,30541
91674,30088
91201,30088
" /> 
<polyline style="fill-rule:evenodd;"
points="91792,30088
91792,30541
92264,30541
92264,30088
91792,30088
" /> 
<polyline style="fill-rule:evenodd;"
points="69626,37431
69626,36978
69154,36978
69154,37431
69626,37431
" /> 
<polyline style="fill-rule:evenodd;"
points="69036,37431
69036,36978
68563,36978
68563,37431
69036,37431
" /> 
<polyline style="fill-rule:evenodd;"
points="91969,61348
91969,60895
91496,60895
91496,61348
91969,61348
" /> 
<polyline style="fill-rule:evenodd;"
points="91378,61348
91378,60895
90906,60895
90906,61348
91378,61348
" /> 
<polyline style="fill-rule:evenodd;"
points="91004,17391
91004,17844
91477,17844
91477,17391
91004,17391
" /> 
<polyline style="fill-rule:evenodd;"
points="91595,17391
91595,17844
92067,17844
92067,17391
91595,17391
" /> 
<polyline style="fill-rule:evenodd;"
points="83829,51712
84282,51712
84282,51240
83829,51240
83829,51712
" /> 
<polyline style="fill-rule:evenodd;"
points="83829,51122
84282,51122
84282,50649
83829,50649
83829,51122
" /> 
<polyline style="fill-rule:evenodd;"
points="69626,47372
69626,46919
69154,46919
69154,47372
69626,47372
" /> 
<polyline style="fill-rule:evenodd;"
points="69036,47372
69036,46919
68563,46919
68563,47372
69036,47372
" /> 
<polyline style="fill-rule:evenodd;"
points="89931,51318
90384,51318
90384,50846
89931,50846
89931,51318
" /> 
<polyline style="fill-rule:evenodd;"
points="89931,50728
90384,50728
90384,50255
89931,50255
89931,50728
" /> 
<polyline style="fill-rule:evenodd;"
points="77431,47775
77884,47775
77884,47303
77431,47303
77431,47775
" /> 
<polyline style="fill-rule:evenodd;"
points="77431,47185
77884,47185
77884,46712
77431,46712
77431,47185
" /> 
<polyline style="fill-rule:evenodd;"
points="91004,41013
91004,41466
91477,41466
91477,41013
91004,41013
" /> 
<polyline style="fill-rule:evenodd;"
points="91595,41013
91595,41466
92067,41466
92067,41013
91595,41013
" /> 
<polyline style="fill-rule:evenodd;"
points="97766,54586
97313,54586
97313,55059
97766,55059
97766,54586
" /> 
<polyline style="fill-rule:evenodd;"
points="97766,55177
97313,55177
97313,55649
97766,55649
97766,55177
" /> 
<polyline style="fill-rule:evenodd;"
points="77431,55649
77884,55649
77884,55177
77431,55177
77431,55649
" /> 
<polyline style="fill-rule:evenodd;"
points="77431,55059
77884,55059
77884,54586
77431,54586
77431,55059
" /> 
<polyline style="fill-rule:evenodd;"
points="83130,41013
83130,41466
83603,41466
83603,41013
83130,41013
" /> 
<polyline style="fill-rule:evenodd;"
points="83721,41013
83721,41466
84193,41466
84193,41013
83721,41013
" /> 
<polyline style="fill-rule:evenodd;"
points="97766,46712
97313,46712
97313,47185
97766,47185
97766,46712
" /> 
<polyline style="fill-rule:evenodd;"
points="97766,47303
97313,47303
97313,47775
97766,47775
97766,47303
" /> 
<polyline style="fill-rule:evenodd;"
points="89626,28809
89626,29261
90099,29261
90099,28809
89626,28809
" /> 
<polyline style="fill-rule:evenodd;"
points="90217,28809
90217,29261
90689,29261
90689,28809
90217,28809
" /> 
<polyline style="fill-rule:evenodd;"
points="89046,26909
89498,26909
89498,26437
89046,26437
89046,26909
" /> 
<polyline style="fill-rule:evenodd;"
points="89046,26318
89498,26318
89498,25846
89046,25846
89046,26318
" /> 
<polyline style="fill-rule:evenodd;"
points="85660,30570
85207,30570
85207,31043
85660,31043
85660,30570
" /> 
<polyline style="fill-rule:evenodd;"
points="85660,31161
85207,31161
85207,31633
85660,31633
85660,31161
" /> 
<polyline style="fill-rule:evenodd;"
points="84420,26318
84872,26318
84872,25846
84420,25846
84420,26318
" /> 
<polyline style="fill-rule:evenodd;"
points="84420,25728
84872,25728
84872,25255
84420,25255
84420,25728
" /> 
<polyline style="fill-rule:evenodd;"
points="85296,45580
85296,45127
84823,45127
84823,45580
85296,45580
" /> 
<polyline style="fill-rule:evenodd;"
points="84705,45580
84705,45127
84233,45127
84233,45580
84705,45580
" /> 
<polyline style="fill-rule:evenodd;"
points="90384,52814
89931,52814
89931,53287
90384,53287
90384,52814
" /> 
<polyline style="fill-rule:evenodd;"
points="90384,53405
89931,53405
89931,53877
90384,53877
90384,53405
" /> 
<polyline style="fill-rule:evenodd;"
points="90817,51614
91270,51614
91270,51141
90817,51141
90817,51614
" /> 
<polyline style="fill-rule:evenodd;"
points="90817,51023
91270,51023
91270,50551
90817,50551
90817,51023
" /> 
<polyline style="fill-rule:evenodd;"
points="89384,57368
90341,57368
90341,56411
89384,56411
89384,57368
" /> 
</g>
<g style="fill:#000000; fill-opacity:1.0; 
stroke:#000000; stroke-width:957.48; stroke-opacity:1; 
stroke-linecap:round; stroke-linejoin:round;">
</g>
<g style="fill:#000000; fill-opacity:0.0; 
stroke:#000000; stroke-width:957.48; stroke-opacity:1; 
stroke-linecap:round; stroke-linejoin:round;">
<path d="M88863 56889
L88863 56889
" />
</g>
<g style="fill:#000000; fill-opacity:0.0; 
stroke:#000000; stroke-width:0; stroke-opacity:1; 
stroke-linecap:round; stroke-linejoin:round;">
</g>
<g style="fill:#000000; fill-opacity:1.0; 
stroke:#000000; stroke-width:0; stroke-opacity:1; 
stroke-linecap:round; stroke-linejoin:round;">
<polyline style="fill-rule:evenodd;"
points="92435,29514
93392,29514
93392,28556
92435,28556
92435,29514
" /> 
</g>
<g style="fill:#000000; fill-opacity:1.0; 
stroke:#000000; stroke-width:957.48; stroke-opacity:1; 
stroke-linecap:round; stroke-linejoin:round;">
</g>
<g style="fill:#000000; fill-opacity:0.0; 
stroke:#000000; stroke-width:957.48; stroke-opacity:1; 
stroke-linecap:round; stroke-linejoin:round;">
<path d="M91914 29035
L91914 29035
" />
</g> 
</svg>
